<svg xmlns="http://www.w3.org/2000/svg" xmlns:xlink="http://www.w3.org/1999/xlink" zoomAndPan="magnify" preserveAspectRatio="xMidYMid meet" version="1.0" viewBox="0.55 0 36.4 24.78"><defs><g/><clipPath id="be4226f91a"><path d="M 5.277344 0 L 19 0 L 19 12 L 5.277344 12 Z M 5.277344 0 " clip-rule="nonzero"/></clipPath><clipPath id="41321cdcbc"><path d="M 18 0 L 32.277344 0 L 32.277344 12 L 18 12 Z M 18 0 " clip-rule="nonzero"/></clipPath></defs><path fill="#010101" d="M 18.777344 2.644531 L 28.117188 12 L 29.246094 12 L 19.34375 2.078125 Z M 18.777344 2.644531 " fill-opacity="1" fill-rule="nonzero"/><g clip-path="url(#be4226f91a)"><path fill="#010101" d="M 17.265625 1.128906 L 18.214844 2.078125 L 18.777344 1.515625 L 17.265625 0 L 5.289062 12 L 6.417969 12 Z M 17.265625 1.128906 " fill-opacity="1" fill-rule="nonzero"/></g><g clip-path="url(#41321cdcbc)"><path fill="#010101" d="M 20.289062 1.128906 L 31.140625 12 L 32.269531 12 L 20.289062 0 L 18.777344 1.515625 L 19.34375 2.078125 Z M 20.289062 1.128906 " fill-opacity="1" fill-rule="nonzero"/></g><path fill="#010101" d="M 18.214844 2.078125 L 8.3125 12 L 9.441406 12 L 18.777344 2.644531 Z M 18.214844 2.078125 " fill-opacity="1" fill-rule="nonzero"/><path fill="#010101" d="M 19.34375 2.078125 L 18.78125 2.644531 L 18.214844 2.078125 L 18.777344 1.515625 Z M 19.34375 2.078125 " fill-opacity="1" fill-rule="nonzero"/><path fill="#010101" d="M 11.925781 12 L 13.050781 12 L 18.777344 6.261719 L 24.503906 12 L 25.632812 12 L 18.777344 5.132812 Z M 11.925781 12 " fill-opacity="1" fill-rule="nonzero"/><path fill="#010101" d="M 15.179688 12 L 16.308594 12 L 18.777344 9.523438 L 21.25 12 L 22.378906 12 L 18.777344 8.394531 Z M 15.179688 12 " fill-opacity="1" fill-rule="nonzero"/><g fill="#010101" fill-opacity="1"><g transform="translate(15.284679, 19.134872)"><g><path d="M 1.464844 0.0820312 C 2.265625 0.0820312 2.792969 -0.46875 2.792969 -1.246094 L 2.792969 -3.660156 L 2.011719 -3.660156 L 2.011719 -1.285156 C 2.011719 -0.90625 1.789062 -0.664062 1.464844 -0.664062 C 1.125 -0.664062 0.898438 -0.910156 0.898438 -1.285156 L 0.898438 -1.378906 L 0.113281 -1.378906 L 0.113281 -1.246094 C 0.113281 -0.46875 0.679688 0.0820312 1.464844 0.0820312 Z M 1.464844 0.0820312 "/></g></g></g><g fill="#010101" fill-opacity="1"><g transform="translate(19.163948, 19.134872)"><g><path d="M 2.9375 -3.660156 L 0.109375 -3.660156 L 0.109375 -2.921875 L 1.128906 -2.921875 L 1.128906 0 L 1.917969 0 L 1.917969 -2.921875 L 2.9375 -2.921875 Z M 2.9375 -3.660156 "/></g></g></g><g fill="#010101" fill-opacity="1"><g transform="translate(0.487632, 24.714107)"><g><path d="M 0.882812 0.0507812 C 1.363281 0.0507812 1.683594 -0.285156 1.683594 -0.75 L 1.683594 -2.203125 L 1.210938 -2.203125 L 1.210938 -0.773438 C 1.210938 -0.542969 1.078125 -0.398438 0.882812 -0.398438 C 0.675781 -0.398438 0.542969 -0.546875 0.542969 -0.773438 L 0.542969 -0.832031 L 0.0703125 -0.832031 L 0.0703125 -0.75 C 0.0703125 -0.285156 0.410156 0.0507812 0.882812 0.0507812 Z M 0.882812 0.0507812 "/></g></g></g><g fill="#010101" fill-opacity="1"><g transform="translate(2.823532, 24.714107)"><g><path d="M 1.140625 0.0507812 C 1.660156 0.0507812 2.050781 -0.3125 2.050781 -0.828125 L 2.050781 -2.203125 L 1.570312 -2.203125 L 1.570312 -0.851562 C 1.570312 -0.578125 1.390625 -0.398438 1.140625 -0.398438 C 0.886719 -0.398438 0.707031 -0.578125 0.707031 -0.851562 L 0.707031 -2.203125 L 0.226562 -2.203125 L 0.226562 -0.828125 C 0.226562 -0.3125 0.617188 0.0507812 1.140625 0.0507812 Z M 1.140625 0.0507812 "/></g></g></g><g fill="#010101" fill-opacity="1"><g transform="translate(5.521383, 24.714107)"><g><path d="M 1.648438 -2.203125 L 1.648438 -0.859375 L 0.679688 -2.203125 L 0.253906 -2.203125 L 0.253906 0 L 0.71875 0 L 0.71875 -1.375 L 1.714844 0 L 2.117188 0 L 2.117188 -2.203125 Z M 1.648438 -2.203125 "/></g></g></g><g fill="#010101" fill-opacity="1"><g transform="translate(8.307359, 24.714107)"><g><path d="M 0.253906 0 L 0.726562 0 L 0.726562 -2.203125 L 0.253906 -2.203125 Z M 0.253906 0 "/></g></g></g><g fill="#010101" fill-opacity="1"><g transform="translate(9.70849, 24.714107)"><g><path d="M 1.296875 0.0507812 C 1.96875 0.0507812 2.46875 -0.445312 2.46875 -1.101562 C 2.46875 -1.757812 1.96875 -2.253906 1.296875 -2.253906 C 0.625 -2.253906 0.121094 -1.753906 0.121094 -1.101562 C 0.121094 -0.449219 0.625 0.0507812 1.296875 0.0507812 Z M 1.296875 -0.398438 C 0.902344 -0.398438 0.605469 -0.707031 0.605469 -1.101562 C 0.605469 -1.5 0.902344 -1.800781 1.296875 -1.800781 C 1.691406 -1.800781 1.984375 -1.503906 1.984375 -1.101562 C 1.984375 -0.703125 1.691406 -0.398438 1.296875 -0.398438 Z M 1.296875 -0.398438 "/></g></g></g><g fill="#010101" fill-opacity="1"><g transform="translate(12.717929, 24.714107)"><g><path d="M 1.464844 0 L 1.996094 0 L 1.507812 -0.832031 C 1.753906 -0.953125 1.910156 -1.183594 1.910156 -1.472656 C 1.910156 -1.898438 1.582031 -2.203125 1.140625 -2.203125 L 0.253906 -2.203125 L 0.253906 0 L 0.726562 0 L 0.726562 -0.75 L 1.03125 -0.75 Z M 0.726562 -1.765625 L 1.109375 -1.765625 C 1.308594 -1.765625 1.425781 -1.640625 1.425781 -1.476562 C 1.425781 -1.308594 1.308594 -1.191406 1.109375 -1.191406 L 0.726562 -1.191406 Z M 0.726562 -1.765625 "/></g></g></g><g fill="#010101" fill-opacity="1"><g transform="translate(15.217494, 24.714107)"><g/></g></g><g fill="#010101" fill-opacity="1"><g transform="translate(16.388867, 24.714107)"><g><path d="M 1.769531 -2.203125 L 0.0664062 -2.203125 L 0.0664062 -1.761719 L 0.679688 -1.761719 L 0.679688 0 L 1.15625 0 L 1.15625 -1.761719 L 1.769531 -1.761719 Z M 1.769531 -2.203125 "/></g></g></g><g fill="#010101" fill-opacity="1"><g transform="translate(18.646083, 24.714107)"><g><path d="M 1.464844 0 L 1.996094 0 L 1.507812 -0.832031 C 1.753906 -0.953125 1.910156 -1.183594 1.910156 -1.472656 C 1.910156 -1.898438 1.582031 -2.203125 1.140625 -2.203125 L 0.253906 -2.203125 L 0.253906 0 L 0.726562 0 L 0.726562 -0.75 L 1.03125 -0.75 Z M 0.726562 -1.765625 L 1.109375 -1.765625 C 1.308594 -1.765625 1.425781 -1.640625 1.425781 -1.476562 C 1.425781 -1.308594 1.308594 -1.191406 1.109375 -1.191406 L 0.726562 -1.191406 Z M 0.726562 -1.765625 "/></g></g></g><g fill="#010101" fill-opacity="1"><g transform="translate(21.145649, 24.714107)"><g><path d="M 1.714844 0 L 2.234375 0 L 1.34375 -2.203125 L 0.890625 -2.203125 L 0.0234375 0 L 0.53125 0 L 0.683594 -0.414062 L 1.558594 -0.414062 Z M 1.121094 -1.621094 L 1.410156 -0.832031 L 0.832031 -0.832031 Z M 1.121094 -1.621094 "/></g></g></g><g fill="#010101" fill-opacity="1"><g transform="translate(23.824615, 24.714107)"><g><path d="M 1.652344 -2.203125 L 1.109375 -0.644531 L 0.550781 -2.203125 L 0.0234375 -2.203125 L 0.886719 0 L 1.335938 0 L 2.171875 -2.203125 Z M 1.652344 -2.203125 "/></g></g></g><g fill="#010101" fill-opacity="1"><g transform="translate(26.453224, 24.714107)"><g><path d="M 0.726562 -0.441406 L 0.726562 -0.894531 L 1.492188 -0.894531 L 1.492188 -1.324219 L 0.726562 -1.324219 L 0.726562 -1.765625 L 1.574219 -1.765625 L 1.574219 -2.203125 L 0.253906 -2.203125 L 0.253906 0 L 1.609375 0 L 1.609375 -0.441406 Z M 0.726562 -0.441406 "/></g></g></g><g fill="#010101" fill-opacity="1"><g transform="translate(28.631758, 24.714107)"><g><path d="M 0.726562 -0.441406 L 0.726562 -2.203125 L 0.253906 -2.203125 L 0.253906 0 L 1.574219 0 L 1.574219 -0.441406 Z M 0.726562 -0.441406 "/></g></g></g><g fill="#010101" fill-opacity="1"><g transform="translate(30.693838, 24.714107)"><g><path d="M 0.726562 -0.441406 L 0.726562 -2.203125 L 0.253906 -2.203125 L 0.253906 0 L 1.574219 0 L 1.574219 -0.441406 Z M 0.726562 -0.441406 "/></g></g></g><g fill="#010101" fill-opacity="1"><g transform="translate(32.755917, 24.714107)"><g><path d="M 0.726562 -0.441406 L 0.726562 -0.894531 L 1.492188 -0.894531 L 1.492188 -1.324219 L 0.726562 -1.324219 L 0.726562 -1.765625 L 1.574219 -1.765625 L 1.574219 -2.203125 L 0.253906 -2.203125 L 0.253906 0 L 1.609375 0 L 1.609375 -0.441406 Z M 0.726562 -0.441406 "/></g></g></g><g fill="#010101" fill-opacity="1"><g transform="translate(34.934451, 24.714107)"><g><path d="M 1.464844 0 L 1.996094 0 L 1.507812 -0.832031 C 1.753906 -0.953125 1.910156 -1.183594 1.910156 -1.472656 C 1.910156 -1.898438 1.582031 -2.203125 1.140625 -2.203125 L 0.253906 -2.203125 L 0.253906 0 L 0.726562 0 L 0.726562 -0.75 L 1.03125 -0.75 Z M 0.726562 -1.765625 L 1.109375 -1.765625 C 1.308594 -1.765625 1.425781 -1.640625 1.425781 -1.476562 C 1.425781 -1.308594 1.308594 -1.191406 1.109375 -1.191406 L 0.726562 -1.191406 Z M 0.726562 -1.765625 "/></g></g></g></svg>