<svg xmlns="http://www.w3.org/2000/svg" xmlns:xlink="http://www.w3.org/1999/xlink" width="1024" zoomAndPan="magnify" viewBox="0 0 768 767.999994" height="1024" preserveAspectRatio="xMidYMid meet" version="1.0"><defs><clipPath id="85177bd9fc"><path d="M 0 509 L 231 509 L 231 689.394531 L 0 689.394531 Z M 0 509 " clip-rule="nonzero"/></clipPath></defs><path fill="#000000" d="M 752.734375 94.773438 C 743.574219 87.253906 732.066406 85.140625 720.792969 83.023438 C 711.164062 81.378906 701.535156 80.675781 691.667969 79.96875 C 673.585938 79.03125 655.734375 81.144531 637.886719 84.667969 C 626.378906 87.019531 615.339844 90.308594 604.769531 95.476562 C 595.140625 100.175781 585.746094 105.113281 577.058594 111.222656 C 571.421875 115.214844 566.722656 120.386719 559.207031 121.558594 C 557.5625 121.792969 556.390625 122.734375 555.449219 123.910156 C 552.632812 126.964844 552.394531 131.429688 554.980469 134.71875 C 556.859375 137.066406 559.675781 138.007812 562.496094 137.773438 C 563.90625 137.773438 565.3125 137.304688 566.488281 136.128906 C 566.488281 136.128906 566.722656 135.894531 566.722656 135.894531 C 568.601562 134.25 569.777344 132.132812 569.777344 129.785156 C 570.949219 127.433594 572.59375 125.789062 574.707031 124.378906 C 576.351562 123.203125 578.230469 122.03125 579.875 120.855469 C 593.261719 110.515625 607.824219 102.527344 623.792969 97.828125 C 640.9375 92.65625 658.320312 89.367188 676.402344 89.132812 C 690.027344 89.132812 703.648438 89.601562 717.269531 91.484375 C 725.253906 92.65625 733.003906 94.773438 740.519531 98.0625 C 749.914062 102.527344 755.789062 109.8125 756.960938 120.621094 C 757.429688 124.613281 756.257812 127.902344 752.96875 130.488281 C 737 143.175781 721.027344 156.101562 705.292969 169.023438 C 690.964844 180.539062 676.875 192.289062 662.546875 204.035156 C 646.574219 217.195312 630.605469 230.117188 614.636719 243.277344 C 600.308594 255.027344 585.980469 266.773438 571.421875 278.523438 C 564.84375 283.691406 558.503906 289.332031 551.457031 293.796875 C 545.351562 297.792969 540.886719 302.492188 540.183594 310.714844 C 538.773438 323.875 536.191406 337.03125 534.3125 350.191406 C 531.726562 367.34375 528.910156 384.261719 526.328125 401.414062 C 522.804688 424.679688 519.75 447.941406 515.992188 470.96875 C 514.347656 481.777344 512.46875 492.351562 510.824219 503.160156 C 509.886719 509.738281 507.539062 514.910156 503.78125 520.078125 C 498.613281 527.128906 492.976562 533.941406 486.871094 540.519531 C 468.785156 559.789062 449.292969 577.175781 428.390625 593.15625 C 418.289062 600.675781 407.957031 607.957031 396.917969 613.832031 C 395.039062 614.773438 393.160156 616.417969 391.28125 614.773438 C 389.636719 613.363281 390.8125 611.25 391.046875 609.367188 C 392.691406 595.738281 394.097656 582.109375 395.742188 568.484375 C 397.621094 551.5625 399.5 534.410156 401.378906 517.492188 C 402.789062 503.628906 404.667969 490 406.078125 476.136719 C 407.957031 456.398438 410.304688 436.898438 412.417969 417.394531 C 413.121094 411.988281 412.652344 406.585938 418.996094 403.765625 C 420.875 403.058594 421.578125 400.476562 420.167969 398.359375 C 418.996094 396.480469 417.117188 395.539062 414.765625 396.480469 C 412.417969 397.421875 409.835938 398.359375 407.484375 399.535156 C 396.210938 405.175781 385.175781 411.050781 373.902344 416.6875 C 349.945312 428.671875 325.988281 440.65625 301.796875 452.640625 C 299.449219 453.816406 297.335938 454.285156 294.753906 454.050781 C 277.371094 451.464844 259.992188 448.644531 242.378906 447 C 228.992188 445.589844 215.605469 442.769531 202.214844 441.832031 C 197.988281 441.597656 193.527344 441.597656 189.769531 439.011719 C 186.949219 436.898438 184.132812 434.78125 181.3125 432.433594 C 166.753906 421.152344 152.191406 409.875 137.628906 398.832031 C 122.363281 387.082031 106.863281 375.566406 91.597656 363.820312 C 85.960938 359.589844 85.960938 359.121094 91.597656 354.65625 C 104.277344 344.550781 117.195312 334.449219 130.113281 324.34375 C 132.460938 322.464844 134.574219 322.230469 137.394531 323.167969 C 145.613281 325.988281 153.601562 328.808594 161.820312 331.628906 C 187.183594 339.851562 212.550781 348.074219 237.914062 356.300781 C 243.550781 358.179688 248.953125 360.058594 254.589844 361.703125 C 260.226562 363.585938 265.628906 363.113281 270.328125 359.121094 C 275.257812 354.890625 280.660156 350.894531 285.828125 346.902344 C 302.503906 333.976562 319.414062 321.054688 336.089844 307.894531 C 356.285156 292.152344 376.25 276.410156 396.449219 260.664062 C 422.515625 240.222656 448.820312 219.78125 475.125 199.570312 C 482.878906 193.695312 489.21875 185.941406 499.082031 183.359375 C 499.316406 183.359375 499.316406 183.125 499.550781 183.125 C 502.605469 181.242188 504.015625 177.484375 503.308594 173.960938 C 502.605469 170.433594 499.789062 168.085938 496.03125 168.085938 C 492.507812 167.851562 489.6875 169.730469 488.75 173.722656 C 487.808594 177.484375 485.226562 179.363281 482.640625 181.476562 C 473.011719 188.996094 463.148438 196.046875 453.753906 203.800781 C 450.699219 206.386719 448.117188 206.621094 444.59375 205.210938 C 433.085938 200.277344 420.875 197.691406 408.894531 195.105469 C 394.332031 192.050781 380.007812 188.761719 365.210938 187.117188 C 348.300781 185.238281 331.390625 182.886719 314.246094 182.417969 C 295.222656 181.714844 276.433594 181.949219 257.410156 184.53125 C 243.785156 186.414062 230.164062 187.585938 217.011719 191.347656 C 213.488281 192.289062 209.730469 193.460938 206.210938 194.402344 C 186.714844 199.570312 168.632812 207.089844 152.660156 219.542969 C 145.378906 225.183594 139.273438 231.761719 134.339844 239.28125 C 131.054688 244.21875 131.992188 247.742188 137.394531 250.089844 C 140.917969 251.5 144.441406 252.910156 148.199219 253.617188 C 159 255.730469 169.101562 259.726562 179.667969 262.074219 C 189.0625 264.191406 197.988281 267.246094 207.382812 269.59375 C 220.535156 273.117188 233.921875 276.171875 247.074219 279.933594 C 265.394531 285.335938 284.183594 289.566406 302.503906 294.972656 C 306.964844 296.144531 311.425781 297.554688 316.125 298.496094 C 319.648438 299.4375 323.40625 299.90625 326.695312 301.785156 C 326.222656 304.136719 324.578125 305.074219 322.9375 306.25 C 316.359375 311.417969 310.019531 316.355469 303.441406 321.523438 C 290.523438 331.628906 277.605469 341.496094 264.925781 351.601562 C 262.339844 353.714844 259.757812 354.183594 256.703125 352.777344 C 252.242188 350.894531 247.308594 349.722656 242.847656 348.3125 C 224.527344 342.203125 206.210938 336.328125 187.890625 330.21875 C 171.449219 324.8125 155.007812 319.878906 138.804688 314.003906 C 133.871094 312.125 129.878906 313.066406 125.886719 316.589844 C 117.429688 323.636719 108.976562 330.21875 100.285156 336.796875 C 92.066406 343.140625 83.847656 349.484375 75.859375 355.828125 C 73.277344 357.945312 73.042969 359.824219 75.15625 362.644531 C 75.859375 363.585938 76.566406 364.289062 77.503906 364.992188 C 91.125 375.566406 104.75 386.140625 118.605469 396.480469 C 139.507812 412.460938 160.644531 428.4375 181.546875 444.652344 C 185.777344 447.941406 190.003906 449.820312 195.171875 450.761719 C 204.800781 452.40625 214.664062 452.640625 224.292969 454.285156 C 237.445312 456.398438 250.597656 458.515625 263.984375 459.453125 C 274.554688 460.160156 284.886719 462.507812 295.222656 464.152344 C 298.273438 464.625 301.09375 464.859375 303.910156 463.449219 C 316.359375 457.339844 328.808594 451.230469 341.253906 445.121094 C 356.050781 437.835938 370.613281 430.082031 385.410156 423.03125 C 390.105469 420.683594 394.570312 417.863281 399.5 415.984375 C 402.554688 414.574219 403.492188 415.277344 403.492188 418.804688 C 403.492188 421.386719 403.257812 423.972656 402.789062 426.558594 C 401.847656 433.371094 400.675781 440.421875 400.207031 447.234375 C 398.5625 470.734375 394.804688 494.230469 392.453125 517.726562 C 391.046875 532.0625 389.402344 546.394531 387.757812 560.726562 C 386.113281 574.828125 385.175781 589.160156 383.296875 603.257812 C 382.589844 608.429688 381.886719 613.597656 381.417969 619.003906 C 380.945312 625.113281 384.9375 628.636719 390.8125 627.460938 C 394.332031 626.757812 397.621094 625.582031 400.910156 623.9375 C 418.289062 615.242188 433.789062 603.492188 448.820312 591.273438 C 466.203125 577.175781 482.40625 561.902344 497.671875 545.457031 C 504.71875 537.699219 511.53125 529.710938 517.167969 520.546875 C 519.75 516.316406 521.863281 511.855469 522.332031 506.917969 C 523.039062 494.933594 525.621094 483.1875 527.5 471.203125 C 528.910156 460.863281 531.023438 450.523438 532.433594 439.953125 C 535.957031 416.6875 539.480469 393.425781 542.765625 370.398438 C 545.351562 352.539062 548.167969 334.683594 550.753906 316.824219 C 551.457031 311.417969 552.867188 306.957031 557.796875 304.371094 C 559.207031 303.664062 560.617188 302.492188 561.789062 301.316406 C 577.761719 287.21875 594.671875 274.058594 611.347656 260.429688 C 627.316406 247.273438 643.523438 234.582031 659.492188 221.425781 C 673.585938 209.910156 687.675781 198.160156 701.769531 186.648438 C 721.96875 170.199219 742.164062 153.515625 762.363281 137.304688 C 766.121094 134.25 767.765625 130.488281 768 126.023438 C 766.824219 113.335938 762.363281 102.761719 752.734375 94.773438 Z M 323.171875 290.273438 C 313.304688 287.453125 303.207031 285.101562 293.34375 282.28125 C 277.605469 277.816406 261.871094 273.589844 246.136719 269.359375 C 231.339844 265.597656 216.542969 261.371094 201.511719 257.375 C 183.898438 252.910156 166.515625 247.507812 148.667969 243.511719 C 147.726562 243.277344 146.789062 243.042969 146.085938 242.808594 C 144.441406 242.335938 143.96875 241.164062 144.910156 239.753906 C 145.847656 238.34375 146.789062 236.933594 147.964844 235.757812 C 158.765625 224.007812 172.390625 216.253906 187.183594 210.144531 C 197.050781 206.152344 207.382812 202.859375 217.71875 200.277344 C 230.636719 197.222656 243.789062 195.34375 257.175781 193.460938 C 277.605469 190.640625 298.039062 191.113281 318.472656 191.582031 C 336.089844 192.050781 353.46875 194.871094 371.082031 197.222656 C 383.53125 198.867188 395.742188 201.921875 408.191406 204.269531 C 414.53125 205.445312 420.875 207.796875 427.214844 209.675781 C 431.207031 210.851562 435.433594 210.617188 439.425781 213.90625 C 436.375 217.898438 432.382812 220.015625 429.09375 222.835938 C 417.351562 232.234375 405.136719 240.925781 393.394531 250.328125 C 382.355469 259.253906 371.316406 267.714844 360.277344 276.410156 C 353.9375 281.34375 347.597656 286.277344 341.253906 291.445312 C 339.140625 293.089844 337.027344 293.796875 334.445312 293.089844 C 330.453125 292.152344 326.695312 291.210938 323.171875 290.273438 Z M 323.171875 290.273438 " fill-opacity="1" fill-rule="nonzero"/><g clip-path="url(#85177bd9fc)"><path fill="#000000" d="M 225.703125 509.972656 C 223.589844 509.972656 222.179688 510.914062 220.769531 512.089844 C 215.367188 516.316406 209.730469 520.546875 204.332031 524.777344 C 191.882812 534.410156 179.433594 544.046875 166.988281 553.679688 C 155.007812 562.84375 143.265625 572.007812 131.289062 581.171875 C 116.492188 592.683594 101.695312 604.199219 86.898438 615.710938 C 73.042969 626.519531 58.714844 636.859375 44.859375 647.667969 C 31.707031 658.007812 18.554688 668.113281 5.402344 678.214844 C 3.992188 679.390625 2.347656 680.566406 1.410156 682.210938 C 0.234375 683.855469 0 685.734375 1.410156 687.378906 C 2.582031 689.023438 4.460938 689.261719 6.574219 688.789062 C 8.925781 688.085938 10.804688 686.441406 12.683594 685.03125 C 24.191406 676.101562 35.464844 667.171875 46.738281 658.476562 C 56.835938 650.722656 66.9375 642.96875 77.035156 635.214844 C 91.832031 623.9375 106.394531 612.421875 120.953125 600.910156 C 135.28125 589.867188 149.605469 579.054688 163.933594 568.011719 C 182.019531 554.148438 200.101562 540.050781 218.1875 525.953125 C 221.945312 523.132812 225.46875 520.078125 229.226562 517.023438 C 230.636719 515.847656 231.339844 513.96875 230.398438 511.855469 C 229.460938 510.445312 227.816406 509.972656 225.703125 509.972656 Z M 225.703125 509.972656 " fill-opacity="1" fill-rule="nonzero"/></g><path fill="#000000" d="M 20.433594 613.363281 C 22.078125 613.363281 23.722656 612.894531 25.128906 611.71875 C 27.007812 610.074219 28.886719 608.664062 30.765625 607.253906 C 50.496094 592.214844 69.988281 577.175781 89.71875 561.902344 C 99.347656 554.382812 108.742188 546.863281 118.605469 539.34375 C 137.394531 524.777344 155.949219 510.445312 174.738281 496.109375 C 176.148438 495.171875 177.320312 493.996094 178.027344 492.351562 C 178.730469 490.472656 178.261719 488.589844 176.851562 487.179688 C 175.441406 485.769531 173.796875 485.535156 172.152344 486.476562 C 171.214844 486.945312 170.273438 487.652344 169.335938 488.121094 C 164.402344 491.878906 159.472656 495.640625 154.539062 499.398438 C 128.9375 519.136719 103.574219 539.109375 77.972656 558.847656 C 58.714844 573.886719 39.457031 588.691406 19.964844 603.492188 C 18.554688 604.433594 17.378906 605.609375 16.441406 607.253906 C 14.796875 610.542969 16.441406 613.363281 20.433594 613.363281 Z M 20.433594 613.363281 " fill-opacity="1" fill-rule="nonzero"/><path fill="#000000" d="M 45.5625 533.472656 C 46.269531 533.472656 47.910156 532.765625 49.320312 531.589844 C 55.425781 526.890625 61.535156 522.191406 67.640625 517.492188 C 82.671875 505.980469 97.9375 494.699219 112.96875 483.1875 C 118.136719 479.191406 123.539062 475.199219 128.46875 470.96875 C 130.816406 469.089844 131.054688 466.035156 129.410156 464.386719 C 127.765625 462.507812 125.652344 462.273438 123.304688 463.449219 C 122.363281 463.917969 121.660156 464.386719 120.953125 464.859375 C 108.035156 474.492188 95.121094 484.125 82.203125 493.996094 C 71.632812 501.984375 61.300781 509.972656 50.730469 517.964844 C 47.441406 520.546875 44.152344 522.898438 40.867188 525.480469 C 39.222656 526.890625 38.753906 528.535156 39.457031 530.652344 C 40.632812 532.53125 42.273438 533.234375 45.5625 533.472656 Z M 45.5625 533.472656 " fill-opacity="1" fill-rule="nonzero"/><path fill="#000000" d="M 497.671875 329.984375 C 499.082031 336.09375 497.671875 341.964844 496.96875 347.839844 C 495.558594 358.882812 493.679688 369.695312 492.273438 380.738281 C 489.921875 399.535156 487.574219 418.332031 485.226562 437.132812 C 483.582031 450.523438 481.703125 463.917969 479.589844 477.3125 C 478.648438 483.890625 478.882812 490.941406 476.769531 497.285156 C 476.535156 497.519531 476.066406 497.753906 475.832031 497.988281 C 472.308594 500.808594 471.605469 506.214844 474.65625 509.738281 C 477.476562 513.261719 482.878906 513.96875 486.398438 510.914062 C 489.921875 508.09375 490.394531 503.160156 488.042969 499.636719 C 487.105469 497.050781 487.339844 494.230469 487.574219 491.644531 C 490.628906 469.089844 493.679688 446.296875 496.734375 423.738281 C 499.316406 405.410156 501.667969 386.847656 504.25 368.519531 C 505.1875 362.175781 505.894531 355.832031 506.832031 349.484375 C 507.773438 343.375 507.539062 336.796875 510.589844 331.15625 C 513.644531 328.101562 513.878906 323.402344 511.296875 320.113281 C 508.476562 316.589844 503.074219 315.882812 499.550781 318.9375 C 495.792969 321.523438 495.324219 326.457031 497.671875 329.984375 Z M 497.671875 329.984375 " fill-opacity="1" fill-rule="nonzero"/></svg>